<svg width="224" height="164" viewBox="0 0 224 164" fill="none" xmlns="http://www.w3.org/2000/svg">
<path d="M196.729 123C189.15 123 183 129.15 183 136.729C183 144.308 189.15 150.458 196.729 150.458C204.308 150.458 210.458 144.308 210.458 136.729C210.458 129.15 204.308 123 196.729 123ZM196.729 147.042C191.014 147.042 186.417 142.444 186.417 136.729C186.417 131.014 191.014 126.417 196.729 126.417C202.444 126.417 207.042 131.014 207.042 136.729C207.042 142.444 202.444 147.042 196.729 147.042Z" fill="#9DCC3D"/>
<path d="M24.4763 95.4849C23.793 95.4849 23.2339 94.9258 23.2339 94.2425C23.2339 93.5591 23.793 93 24.4763 93C25.1597 93 25.7188 93.5591 25.7188 94.2425C25.7188 94.9258 25.1597 95.4849 24.4763 95.4849Z" fill="#0C60DF"/>
<path d="M18.637 95.4849C17.9536 95.4849 17.3945 94.9258 17.3945 94.2425C17.3945 93.5591 17.9536 93 18.637 93C19.3203 93 19.8794 93.5591 19.8794 94.2425C19.8794 94.9258 19.3203 95.4849 18.637 95.4849Z" fill="#0C60DF"/>
<path d="M12.8595 95.4849C12.1762 95.4849 11.6171 94.9258 11.6171 94.2425C11.6171 93.5591 12.1762 93 12.8595 93C13.5429 93 14.102 93.5591 14.102 94.2425C14.0399 94.9258 13.5429 95.4849 12.8595 95.4849Z" fill="#0C60DF"/>
<path d="M7.02005 95.4849C6.33669 95.4849 5.77759 94.9258 5.77759 94.2425C5.77759 93.5591 6.33669 93 7.02005 93C7.7034 93 8.2625 93.5591 8.2625 94.2425C8.2625 94.9258 7.7034 95.4849 7.02005 95.4849Z" fill="#0C60DF"/>
<path d="M1.24246 95.4854C0.559106 95.4854 0 94.9263 0 94.2429C0 93.5596 0.559106 93.0005 1.24246 93.0005C1.92581 93.0005 2.48491 93.5596 2.48491 94.2429C2.42279 94.9263 1.86369 95.4854 1.24246 95.4854Z" fill="#0C60DF"/>
<path d="M28.1419 100.641C27.4585 100.641 26.8994 100.082 26.8994 99.3982C26.8994 98.7149 27.4585 98.1558 28.1419 98.1558C28.8252 98.1558 29.3843 98.7149 29.3843 99.3982C29.3843 100.082 28.8252 100.641 28.1419 100.641Z" fill="#0C60DF"/>
<path d="M22.3643 100.641C21.6809 100.641 21.1218 100.082 21.1218 99.3982C21.1218 98.7149 21.6809 98.1558 22.3643 98.1558C23.0476 98.1558 23.6067 98.7149 23.6067 99.3982C23.5446 100.082 23.0476 100.641 22.3643 100.641Z" fill="#0C60DF"/>
<path d="M16.5248 100.641C15.8415 100.641 15.2823 100.082 15.2823 99.3982C15.2823 98.7149 15.8415 98.1558 16.5248 98.1558C17.2082 98.1558 17.7673 98.7149 17.7673 99.3982C17.7673 100.082 17.2082 100.641 16.5248 100.641Z" fill="#0C60DF"/>
<path d="M10.7475 100.641C11.4337 100.641 11.9899 100.084 11.9899 99.3982C11.9899 98.712 11.4337 98.1558 10.7475 98.1558C10.0613 98.1558 9.505 98.712 9.505 99.3982C9.505 100.084 10.0613 100.641 10.7475 100.641Z" fill="#0C60DF"/>
<path d="M4.90774 100.641C5.59393 100.641 6.1502 100.084 6.1502 99.3982C6.1502 98.712 5.59393 98.1558 4.90774 98.1558C4.22155 98.1558 3.66528 98.712 3.66528 99.3982C3.66528 100.084 4.22155 100.641 4.90774 100.641Z" fill="#0C60DF"/>
<path d="M31.4961 105.859C32.1823 105.859 32.7386 105.303 32.7386 104.617C32.7386 103.931 32.1823 103.375 31.4961 103.375C30.8099 103.375 30.2537 103.931 30.2537 104.617C30.2537 105.303 30.8099 105.859 31.4961 105.859Z" fill="#0C60DF"/>
<path d="M25.719 105.859C26.4052 105.859 26.9615 105.303 26.9615 104.617C26.9615 103.931 26.4052 103.375 25.719 103.375C25.0328 103.375 24.4766 103.931 24.4766 104.617C24.4766 105.303 25.0328 105.859 25.719 105.859Z" fill="#0C60DF"/>
<path d="M19.8794 105.797C19.1961 105.797 18.637 105.238 18.637 104.554C18.637 103.871 19.1961 103.312 19.8794 103.312C20.5628 103.312 21.1219 103.871 21.1219 104.554C21.0598 105.238 20.5628 105.797 19.8794 105.797Z" fill="#0C60DF"/>
<path d="M14.0397 105.797C13.3563 105.797 12.7972 105.238 12.7972 104.554C12.7972 103.871 13.3563 103.312 14.0397 103.312C14.723 103.312 15.2822 103.871 15.2822 104.554C15.2822 105.238 14.723 105.797 14.0397 105.797Z" fill="#0C60DF"/>
<path d="M8.26235 105.797C7.579 105.797 7.0199 105.238 7.0199 104.555C7.0199 103.872 7.579 103.312 8.26235 103.312C8.94571 103.312 9.50481 103.872 9.50481 104.555C9.44269 105.238 8.94571 105.797 8.26235 105.797Z" fill="#0C60DF"/>
<path d="M194.54 69.4165H217.774L223.862 75.5667V107.622C223.862 108.119 223.427 108.554 222.93 108.554H194.353C193.856 108.554 193.421 108.119 193.421 107.622V70.5968C193.421 69.9756 193.918 69.4165 194.54 69.4165Z" fill="#E2EDF2"/>
<path d="M191.123 66.0005H214.357L220.445 72.1507V104.206C220.445 104.703 220.01 105.138 219.513 105.138H190.937C190.44 105.138 190.005 104.703 190.005 104.206V67.1808C189.943 66.4975 190.502 66.0005 191.123 66.0005Z" fill="#9DCC3D"/>
<path d="M214.357 66V71.0941C214.357 71.6532 214.854 72.1502 215.413 72.1502H220.445L214.357 66Z" fill="#0C60DF"/>
<g filter="url(#filter0_bd)">
<rect x="17" y="12" width="182" height="134" rx="18" fill="#FCFDFF" fill-opacity="0.5"/>
<rect x="17.5" y="12.5" width="181" height="133" rx="17.5" stroke="url(#paint0_linear)"/>
</g>
<path d="M190.488 32.4883H31.0698V134H190.488V32.4883Z" fill="white"/>
<path d="M190.558 133.651C190.558 132.883 190.558 94.4417 190.488 32.1395L190.558 32.2093C147.79 32.2093 91.9766 32.2093 31.1395 32.2093L31.2791 32.0698C31.2791 67.9999 31.2791 102.325 31.2791 133.581L31.1395 133.442C124.628 133.651 189.581 133.651 190.558 133.651C189.581 133.651 124.628 133.721 31.1395 133.79H31V133.651C31 102.395 31 68.0697 31 32.1395V32H31.1395C91.9766 32 147.79 32 190.558 32H190.627V32.0698C190.627 94.4417 190.558 132.883 190.558 133.651Z" fill="#263238"/>
<path d="M190.697 38.2098C190.697 38.2796 154.976 38.3494 110.884 38.3494C66.7907 38.3494 31.0698 38.2796 31.0698 38.2098C31.0698 38.1401 66.7907 38.0703 110.884 38.0703C154.976 38.0703 190.697 38.1401 190.697 38.2098Z" fill="#263238"/>
<path d="M36.3721 34.4415C36.3721 34.9997 35.8837 35.488 35.3256 35.488C34.7674 35.488 34.2791 34.9997 34.2791 34.4415C34.2791 33.8834 34.7674 33.395 35.3256 33.395C35.8837 33.395 36.3721 33.8834 36.3721 34.4415Z" fill="#263238"/>
<path d="M39.5115 34.4415C39.5115 34.9997 39.0231 35.488 38.465 35.488C37.9068 35.488 37.4185 34.9997 37.4185 34.4415C37.4185 33.8834 37.9068 33.395 38.465 33.395C39.0231 33.395 39.5115 33.8834 39.5115 34.4415Z" fill="#263238"/>
<path d="M42.6514 34.4415C42.6514 34.9997 42.163 35.488 41.6049 35.488C41.0467 35.488 40.5583 34.9997 40.5583 34.4415C40.5583 33.8834 41.0467 33.395 41.6049 33.395C42.163 33.395 42.6514 33.8834 42.6514 34.4415Z" fill="#263238"/>
<path d="M101.464 98.9766H79.2087V100.093H101.464V98.9766Z" fill="#9DCC3D"/>
<path d="M146.465 125.838C146.465 125.768 146.953 125.698 147.581 125.698C147.372 125.908 147.511 125.768 147.442 125.838V125.768V125.629C147.442 125.559 147.442 125.489 147.442 125.419C147.442 125.28 147.442 125.14 147.442 125.071C147.442 124.861 147.511 124.722 147.511 124.722C147.511 124.722 147.581 124.861 147.581 125.071C147.581 125.14 147.581 125.28 147.581 125.419C147.581 125.489 147.581 125.559 147.581 125.629V125.768V125.838C147.511 125.908 147.721 125.698 147.442 125.977C146.953 125.908 146.465 125.838 146.465 125.838Z" fill="#263238"/>
<path d="M141.72 125.836C141.72 125.767 142.279 125.697 142.906 125.697C143.534 125.697 144.093 125.767 144.093 125.836C144.093 125.906 143.534 125.976 142.906 125.976C142.279 125.906 141.72 125.836 141.72 125.836Z" fill="#263238"/>
<path d="M137.046 125.836C137.046 125.767 137.604 125.697 138.232 125.697C138.86 125.697 139.418 125.767 139.418 125.836C139.418 125.906 138.86 125.976 138.232 125.976C137.534 125.906 137.046 125.836 137.046 125.836Z" fill="#263238"/>
<path d="M132.302 125.836C132.302 125.767 132.86 125.697 133.488 125.697C134.116 125.697 134.674 125.767 134.674 125.836C134.674 125.906 134.116 125.976 133.488 125.976C132.86 125.906 132.302 125.836 132.302 125.836Z" fill="#263238"/>
<path d="M127.627 125.836C127.627 125.767 128.186 125.697 128.813 125.697C129.441 125.697 130 125.767 130 125.836C130 125.906 129.441 125.976 128.813 125.976C128.116 125.906 127.627 125.836 127.627 125.836Z" fill="#263238"/>
<path d="M122.883 125.836C122.883 125.767 123.441 125.697 124.069 125.697C124.697 125.697 125.255 125.767 125.255 125.836C125.255 125.906 124.697 125.976 124.069 125.976C123.441 125.906 122.883 125.836 122.883 125.836Z" fill="#263238"/>
<path d="M118.139 125.836C118.139 125.767 118.698 125.697 119.325 125.697C119.953 125.697 120.511 125.767 120.511 125.836C120.511 125.906 119.953 125.976 119.325 125.976C118.698 125.906 118.139 125.836 118.139 125.836Z" fill="#263238"/>
<path d="M114.721 124.722C114.79 124.722 114.86 125.21 114.86 125.838C114.651 125.629 114.79 125.768 114.721 125.698H114.79H114.93C115 125.698 115.069 125.698 115.139 125.698C115.279 125.698 115.418 125.698 115.488 125.698C115.697 125.698 115.837 125.768 115.837 125.768C115.837 125.768 115.697 125.838 115.488 125.838C115.418 125.838 115.279 125.838 115.139 125.838C115.069 125.838 115 125.838 114.93 125.838H114.79H114.721C114.651 125.768 114.86 125.977 114.581 125.698C114.581 125.21 114.651 124.722 114.721 124.722Z" fill="#263238"/>
<path d="M114.721 120.116C114.79 120.116 114.86 120.604 114.86 121.232C114.86 121.86 114.79 122.348 114.721 122.348C114.651 122.348 114.581 121.86 114.581 121.232C114.581 120.674 114.651 120.116 114.721 120.116Z" fill="#263238"/>
<path d="M114.721 115.581C114.79 115.581 114.86 116.069 114.86 116.697C114.86 117.325 114.79 117.814 114.721 117.814C114.651 117.814 114.581 117.325 114.581 116.697C114.581 116.069 114.651 115.581 114.721 115.581Z" fill="#263238"/>
<path d="M114.721 111.046C114.79 111.046 114.86 111.535 114.86 112.163C114.86 112.791 114.79 113.279 114.721 113.279C114.651 113.279 114.581 112.791 114.581 112.163C114.581 111.535 114.651 111.046 114.721 111.046Z" fill="#263238"/>
<path d="M114.721 106.512C114.79 106.512 114.86 107 114.86 107.628C114.86 108.256 114.79 108.744 114.721 108.744C114.651 108.744 114.581 108.256 114.581 107.628C114.581 107 114.651 106.512 114.721 106.512Z" fill="#263238"/>
<path d="M114.721 101.907C114.79 101.907 114.86 102.396 114.86 103.024C114.86 103.651 114.79 104.14 114.721 104.14C114.651 104.14 114.581 103.651 114.581 103.024C114.581 102.465 114.651 101.907 114.721 101.907Z" fill="#263238"/>
<path d="M114.721 97.3726C114.79 97.3726 114.86 97.8609 114.86 98.4888C114.86 99.1167 114.79 99.6051 114.721 99.6051C114.651 99.6051 114.581 99.1167 114.581 98.4888C114.581 97.8609 114.651 97.3726 114.721 97.3726Z" fill="#263238"/>
<path d="M115.837 94.0233C115.837 94.0931 115.348 94.1629 114.721 94.1629C114.93 93.9536 114.79 94.0931 114.86 94.0233V94.0931V94.2326C114.86 94.3024 114.86 94.3722 114.86 94.4419C114.86 94.5815 114.86 94.721 114.86 94.7908C114.86 95.0001 114.79 95.1396 114.79 95.1396C114.79 95.1396 114.721 95.0001 114.721 94.7908C114.721 94.721 114.721 94.5815 114.721 94.4419C114.721 94.3722 114.721 94.3024 114.721 94.2326V94.0931V94.0233C114.79 93.9536 114.581 94.1629 114.86 93.8838C115.279 93.8838 115.837 93.9536 115.837 94.0233Z" fill="#263238"/>
<path d="M120.511 94.0233C120.511 94.0931 119.953 94.1629 119.325 94.1629C118.698 94.1629 118.139 94.0931 118.139 94.0233C118.139 93.9536 118.698 93.8838 119.325 93.8838C120.023 93.8838 120.511 93.9536 120.511 94.0233Z" fill="#263238"/>
<path d="M125.255 94.0233C125.255 94.0931 124.697 94.1629 124.069 94.1629C123.441 94.1629 122.883 94.0931 122.883 94.0233C122.883 93.9536 123.441 93.8838 124.069 93.8838C124.697 93.8838 125.255 93.9536 125.255 94.0233Z" fill="#263238"/>
<path d="M129.93 94.0233C129.93 94.0931 129.372 94.1629 128.744 94.1629C128.116 94.1629 127.558 94.0931 127.558 94.0233C127.558 93.9536 128.116 93.8838 128.744 93.8838C129.442 93.8838 129.93 93.9536 129.93 94.0233Z" fill="#263238"/>
<path d="M134.674 94.0233C134.674 94.0931 134.116 94.1629 133.488 94.1629C132.86 94.1629 132.302 94.0931 132.302 94.0233C132.302 93.9536 132.86 93.8838 133.488 93.8838C134.116 93.8838 134.674 93.9536 134.674 94.0233Z" fill="#263238"/>
<path d="M139.418 94.0233C139.418 94.0931 138.86 94.1629 138.232 94.1629C137.604 94.1629 137.046 94.0931 137.046 94.0233C137.046 93.9536 137.604 93.8838 138.232 93.8838C138.86 93.8838 139.418 93.9536 139.418 94.0233Z" fill="#263238"/>
<path d="M144.093 94.0233C144.093 94.0931 143.534 94.1629 142.906 94.1629C142.279 94.1629 141.72 94.0931 141.72 94.0233C141.72 93.9536 142.279 93.8838 142.906 93.8838C143.604 93.8838 144.093 93.9536 144.093 94.0233Z" fill="#263238"/>
<path d="M147.581 95.0697C147.511 95.0697 147.442 94.5814 147.442 93.9535C147.651 94.1628 147.511 94.0232 147.581 94.093H147.511H147.372C147.302 94.093 147.232 94.093 147.163 94.093C147.023 94.093 146.883 94.093 146.814 94.093C146.604 94.093 146.465 94.0232 146.465 94.0232C146.465 94.0232 146.604 93.9535 146.814 93.9535C146.883 93.9535 147.023 93.9535 147.163 93.9535C147.232 93.9535 147.302 93.9535 147.372 93.9535H147.511H147.581C147.651 94.0232 147.442 93.8139 147.721 94.093C147.721 94.5814 147.651 95.0697 147.581 95.0697Z" fill="#263238"/>
<path d="M147.581 99.6744C147.511 99.6744 147.442 99.1861 147.442 98.5582C147.442 97.9303 147.511 97.4419 147.581 97.4419C147.651 97.4419 147.721 97.9303 147.721 98.5582C147.721 99.1163 147.651 99.6744 147.581 99.6744Z" fill="#263238"/>
<path d="M147.581 104.21C147.511 104.21 147.442 103.721 147.442 103.093C147.442 102.465 147.511 101.977 147.581 101.977C147.651 101.977 147.721 102.465 147.721 103.093C147.721 103.721 147.651 104.21 147.581 104.21Z" fill="#263238"/>
<path d="M147.581 108.744C147.511 108.744 147.442 108.256 147.442 107.628C147.442 107 147.511 106.512 147.581 106.512C147.651 106.512 147.721 107 147.721 107.628C147.721 108.256 147.651 108.744 147.581 108.744Z" fill="#263238"/>
<path d="M147.581 113.349C147.511 113.349 147.442 112.86 147.442 112.232C147.442 111.605 147.511 111.116 147.581 111.116C147.651 111.116 147.721 111.605 147.721 112.232C147.721 112.791 147.651 113.349 147.581 113.349Z" fill="#263238"/>
<path d="M147.581 117.883C147.511 117.883 147.442 117.395 147.442 116.767C147.442 116.139 147.511 115.651 147.581 115.651C147.651 115.651 147.721 116.139 147.721 116.767C147.721 117.395 147.651 117.883 147.581 117.883Z" fill="#263238"/>
<path d="M147.581 122.418C147.511 122.418 147.442 121.93 147.442 121.302C147.442 120.674 147.511 120.186 147.581 120.186C147.651 120.186 147.721 120.674 147.721 121.302C147.721 121.93 147.651 122.418 147.581 122.418Z" fill="#263238"/>
<path d="M137.465 63.7434C137.465 63.7434 137.465 63.6737 137.465 63.5341C137.465 63.3946 137.465 63.1155 137.465 62.8364C137.465 62.2085 137.465 61.3713 137.465 60.2551C137.465 58.0225 137.465 54.883 137.395 50.976L137.465 51.0458C131.883 51.0458 124.628 51.0458 116.814 51.0458C116.814 51.0458 117.023 50.8365 116.884 50.976V51.0458V51.1853V51.3946V51.8132C116.884 52.0923 116.884 52.3714 116.884 52.6504C116.884 53.2086 116.884 53.7667 116.884 54.3248C116.884 55.4411 116.884 56.4876 116.884 57.5341C116.884 59.6272 116.884 61.7202 116.884 63.6737L116.814 63.6039C122.883 63.6039 127.976 63.6737 131.674 63.6737C133.488 63.6737 134.953 63.6737 135.93 63.6737C136.418 63.6737 136.767 63.6737 137.046 63.6737C137.186 63.6737 137.256 63.6737 137.325 63.6737C137.465 63.7434 137.465 63.7434 137.465 63.7434C137.465 63.7434 137.465 63.7434 137.395 63.7434C137.325 63.7434 137.256 63.7434 137.116 63.7434C136.837 63.7434 136.488 63.7434 136 63.7434C135.023 63.7434 133.558 63.7434 131.744 63.7434C128.046 63.7434 122.883 63.7434 116.814 63.8132H116.744V63.7434C116.744 61.7899 116.744 59.7667 116.744 57.6039C116.744 56.5574 116.744 55.4411 116.744 54.3946C116.744 53.8365 116.744 53.2783 116.744 52.7202C116.744 52.4411 116.744 52.1621 116.744 51.883V51.4644V51.2551V51.1156V51.0458C116.674 51.1156 116.884 50.9062 116.884 50.9062C124.697 50.9062 131.953 50.9062 137.535 50.9062H137.604V50.976C137.604 54.883 137.604 58.0225 137.535 60.2551C137.535 61.3713 137.535 62.2085 137.535 62.7667C137.535 63.0457 137.535 63.2551 137.535 63.3946C137.465 63.6737 137.465 63.7434 137.465 63.7434Z" fill="#9DCC3D"/>
<path d="M127.279 56.2795L128.953 57.1865L127.349 58.3028L125.744 59.3493L125.674 57.3958L125.604 55.3726L127.279 56.2795Z" fill="#9DCC3D"/>
<path d="M136 62.4183C136 62.4881 132.023 62.5579 127.139 62.5579C122.256 62.5579 118.279 62.4881 118.279 62.4183C118.279 62.3486 122.256 62.2788 127.139 62.2788C132.023 62.3486 136 62.4183 136 62.4183Z" fill="#9DCC3D"/>
<path d="M118.418 62.6276C118.534 62.6276 118.627 62.5339 118.627 62.4183C118.627 62.3027 118.534 62.209 118.418 62.209C118.302 62.209 118.209 62.3027 118.209 62.4183C118.209 62.5339 118.302 62.6276 118.418 62.6276Z" fill="#0C60DF"/>
<path d="M164.395 52.5117H142.139V53.628H164.395V52.5117Z" fill="#9DCC3D"/>
<path d="M159.581 55.4424H142.139V56.1401H159.581V55.4424Z" fill="#E0E0E0"/>
<path d="M159.581 56.6279H142.139V57.3256H159.581V56.6279Z" fill="#E0E0E0"/>
<path d="M157.418 57.8135H142.139V58.5111H157.418V57.8135Z" fill="#E0E0E0"/>
<path d="M151.278 58.9995H142.139V59.6972H151.278V58.9995Z" fill="#E0E0E0"/>
<path d="M137.465 82.302C137.465 82.302 137.465 82.2323 137.465 82.0927C137.465 81.9532 137.465 81.6741 137.465 81.395C137.465 80.7671 137.465 79.9299 137.465 78.8137C137.465 76.5811 137.465 73.4416 137.395 69.5346L137.465 69.6044C131.883 69.6044 124.628 69.6044 116.814 69.6044C116.814 69.6044 117.023 69.3951 116.884 69.5346V69.6741V69.8137V70.023V70.4416C116.884 70.7207 116.884 70.9997 116.884 71.2788C116.884 71.8369 116.884 72.3951 116.884 72.9532C116.884 74.0695 116.884 75.116 116.884 76.1625C116.884 78.2555 116.884 80.3485 116.884 82.302L116.814 82.2322C122.883 82.2322 127.976 82.302 131.674 82.302C133.488 82.302 134.953 82.302 135.93 82.302C136.418 82.302 136.767 82.302 137.046 82.302C137.186 82.302 137.256 82.302 137.325 82.302C137.465 82.302 137.465 82.302 137.465 82.302C137.465 82.302 137.465 82.302 137.395 82.302C137.325 82.302 137.256 82.302 137.116 82.302C136.837 82.302 136.488 82.302 136 82.302C135.023 82.302 133.558 82.302 131.744 82.302C128.046 82.302 122.883 82.302 116.814 82.3718H116.744V82.302C116.744 80.3485 116.744 78.3253 116.744 76.1625C116.744 75.116 116.744 73.9997 116.744 72.9532C116.744 72.3951 116.744 71.8369 116.744 71.2788C116.744 70.9997 116.744 70.7207 116.744 70.4416V70.023V69.8137V69.6741V69.6044C116.674 69.6741 116.884 69.4648 116.884 69.4648C124.697 69.4648 131.953 69.4648 137.535 69.4648H137.604V69.5346C137.604 73.4416 137.604 76.5811 137.535 78.8137C137.535 79.9299 137.535 80.7671 137.535 81.3253C137.535 81.6043 137.535 81.8136 137.535 81.9532C137.465 82.2322 137.465 82.302 137.465 82.302Z" fill="#9DCC3D"/>
<path d="M127.279 74.8381L128.953 75.7451L127.349 76.8614L125.744 77.9079L125.674 75.9544L125.604 73.9312L127.279 74.8381Z" fill="#9DCC3D"/>
<path d="M136 80.9769C136 81.0467 132.024 81.1165 127.14 81.1165C122.256 81.1165 118.28 81.0467 118.28 80.9769C118.28 80.9072 122.256 80.8374 127.14 80.8374C132.024 80.9072 136 80.9769 136 80.9769Z" fill="#9DCC3D"/>
<path d="M118.418 81.1862C118.534 81.1862 118.627 81.0925 118.627 80.9769C118.627 80.8613 118.534 80.7676 118.418 80.7676C118.302 80.7676 118.209 80.8613 118.209 80.9769C118.209 81.0925 118.302 81.1862 118.418 81.1862Z" fill="#0C60DF"/>
<path d="M164.395 71.0703H142.139V72.1866H164.395V71.0703Z" fill="#9DCC3D"/>
<path d="M159.581 74H142.139V74.6977H159.581V74Z" fill="#E0E0E0"/>
<path d="M159.581 75.1865H142.139V75.8842H159.581V75.1865Z" fill="#E0E0E0"/>
<path d="M157.418 76.3726H142.139V77.0702H157.418V76.3726Z" fill="#E0E0E0"/>
<path d="M151.278 77.5581H142.139V78.2558H151.278V77.5581Z" fill="#E0E0E0"/>
<path d="M106 86.9079C106 86.8381 106.488 86.7684 107.047 86.7684C106.837 86.9777 106.977 86.8381 106.907 86.9079V86.8381V86.7684C106.907 86.6986 106.907 86.6288 106.907 86.5591C106.907 86.4195 106.907 86.3498 106.907 86.2102C106.907 86.0009 106.977 85.9312 106.977 85.9312C106.977 85.9312 107.047 86.0707 107.047 86.2102C107.047 86.28 107.047 86.4195 107.047 86.5591C107.047 86.6288 107.047 86.6986 107.047 86.7684V86.8381V86.9079C106.977 86.9777 107.186 86.7684 106.907 87.0474C106.419 86.9777 106 86.9079 106 86.9079Z" fill="#E0E0E0"/>
<path d="M101.954 86.9066C101.954 86.8369 102.372 86.7671 102.93 86.7671C103.488 86.7671 103.907 86.8369 103.907 86.9066C103.907 86.9764 103.488 87.0462 102.93 87.0462C102.372 86.9764 101.954 86.9066 101.954 86.9066Z" fill="#E0E0E0"/>
<path d="M97.907 86.9066C97.907 86.8369 98.3256 86.7671 98.8837 86.7671C99.4419 86.7671 99.8605 86.8369 99.8605 86.9066C99.8605 86.9764 99.4419 87.0462 98.8837 87.0462C98.3256 86.9764 97.907 86.9066 97.907 86.9066Z" fill="#E0E0E0"/>
<path d="M93.8604 86.9066C93.8604 86.8369 94.279 86.7671 94.8371 86.7671C95.3952 86.7671 95.8138 86.8369 95.8138 86.9066C95.8138 86.9764 95.3952 87.0462 94.8371 87.0462C94.279 86.9764 93.8604 86.9066 93.8604 86.9066Z" fill="#E0E0E0"/>
<path d="M89.814 86.9066C89.814 86.8369 90.2326 86.7671 90.7907 86.7671C91.3488 86.7671 91.7674 86.8369 91.7674 86.9066C91.7674 86.9764 91.3488 87.0462 90.7907 87.0462C90.2326 86.9764 89.814 86.9066 89.814 86.9066Z" fill="#E0E0E0"/>
<path d="M85.7673 86.9066C85.7673 86.8369 86.1859 86.7671 86.7441 86.7671C87.3022 86.7671 87.7208 86.8369 87.7208 86.9066C87.7208 86.9764 87.3022 87.0462 86.7441 87.0462C86.1859 86.9764 85.7673 86.9066 85.7673 86.9066Z" fill="#E0E0E0"/>
<path d="M81.7209 86.9066C81.7209 86.8369 82.1396 86.7671 82.6977 86.7671C83.2558 86.7671 83.6744 86.8369 83.6744 86.9066C83.6744 86.9764 83.2558 87.0462 82.6977 87.0462C82.1396 86.9764 81.7209 86.9066 81.7209 86.9066Z" fill="#E0E0E0"/>
<path d="M77.6743 86.9066C77.6743 86.8369 78.0929 86.7671 78.6511 86.7671C79.2092 86.7671 79.6278 86.8369 79.6278 86.9066C79.6278 86.9764 79.2092 87.0462 78.6511 87.0462C78.0929 86.9764 77.6743 86.9066 77.6743 86.9066Z" fill="#E0E0E0"/>
<path d="M73.6282 86.9066C73.6282 86.8369 74.0468 86.7671 74.6049 86.7671C75.1631 86.7671 75.5817 86.8369 75.5817 86.9066C75.5817 86.9764 75.1631 87.0462 74.6049 87.0462C74.0468 86.9764 73.6282 86.9066 73.6282 86.9066Z" fill="#E0E0E0"/>
<path d="M69.5815 86.9066C69.5815 86.8369 70.0001 86.7671 70.5583 86.7671C71.1164 86.7671 71.535 86.8369 71.535 86.9066C71.535 86.9764 71.1164 87.0462 70.5583 87.0462C70.0699 86.9764 69.5815 86.9066 69.5815 86.9066Z" fill="#E0E0E0"/>
<path d="M65.5349 86.9066C65.5349 86.8369 65.9535 86.7671 66.5117 86.7671C67.0698 86.7671 67.4884 86.8369 67.4884 86.9066C67.4884 86.9764 67.0698 87.0462 66.5117 87.0462C66.0233 86.9764 65.5349 86.9066 65.5349 86.9066Z" fill="#E0E0E0"/>
<path d="M61.4885 86.9066C61.4885 86.8369 61.9071 86.7671 62.4653 86.7671C63.0234 86.7671 63.442 86.8369 63.442 86.9066C63.442 86.9764 63.0234 87.0462 62.4653 87.0462C61.9769 86.9764 61.4885 86.9066 61.4885 86.9066Z" fill="#E0E0E0"/>
<path d="M57.4419 86.9066C57.4419 86.8369 57.8605 86.7671 58.4186 86.7671C58.9768 86.7671 59.3954 86.8369 59.3954 86.9066C59.3954 86.9764 58.9768 87.0462 58.4186 87.0462C57.9303 86.9764 57.4419 86.9066 57.4419 86.9066Z" fill="#E0E0E0"/>
<path d="M53.3955 86.9066C53.3955 86.8369 53.8141 86.7671 54.3723 86.7671C54.9304 86.7671 55.349 86.8369 55.349 86.9066C55.349 86.9764 54.9304 87.0462 54.3723 87.0462C53.8839 86.9764 53.3955 86.9066 53.3955 86.9066Z" fill="#E0E0E0"/>
<path d="M49.3489 86.9066C49.3489 86.8369 49.7675 86.7671 50.3256 86.7671C50.8838 86.7671 51.3024 86.8369 51.3024 86.9066C51.3024 86.9764 50.8838 87.0462 50.3256 87.0462C49.8372 86.9764 49.3489 86.9066 49.3489 86.9066Z" fill="#E0E0E0"/>
<path d="M45.3022 86.9066C45.3022 86.8369 45.7208 86.7671 46.279 86.7671C46.8371 86.7671 47.2557 86.8369 47.2557 86.9066C47.2557 86.9764 46.8371 87.0462 46.279 87.0462C45.7906 86.9764 45.3022 86.9066 45.3022 86.9066Z" fill="#E0E0E0"/>
<path d="M42.3024 85.8604C42.3721 85.8604 42.4419 86.3487 42.4419 86.9069C42.2326 86.6976 42.3721 86.8371 42.3024 86.7673H42.3721H42.4419C42.5117 86.7673 42.5814 86.7673 42.6512 86.7673C42.7907 86.7673 42.8605 86.7673 43 86.7673C43.2094 86.7673 43.2791 86.8371 43.2791 86.8371C43.2791 86.8371 43.1396 86.9069 43 86.9069C42.9303 86.9069 42.7907 86.9069 42.6512 86.9069C42.5814 86.9069 42.5117 86.9069 42.4419 86.9069H42.3721H42.3024C42.2326 86.8371 42.4419 87.0464 42.1628 86.7673C42.1628 86.3487 42.2326 85.8604 42.3024 85.8604Z" fill="#E0E0E0"/>
<path d="M42.3024 81.8838C42.3721 81.8838 42.4419 82.3024 42.4419 82.8605C42.4419 83.4187 42.3721 83.8373 42.3024 83.8373C42.2326 83.8373 42.1628 83.4187 42.1628 82.8605C42.1628 82.3024 42.2326 81.8838 42.3024 81.8838Z" fill="#E0E0E0"/>
<path d="M42.3024 77.9077C42.3721 77.9077 42.4419 78.3263 42.4419 78.8845C42.4419 79.4426 42.3721 79.8612 42.3024 79.8612C42.2326 79.8612 42.1628 79.4426 42.1628 78.8845C42.1628 78.3263 42.2326 77.9077 42.3024 77.9077Z" fill="#E0E0E0"/>
<path d="M42.3024 73.9312C42.3721 73.9312 42.4419 74.3498 42.4419 74.9079C42.4419 75.466 42.3721 75.8846 42.3024 75.8846C42.2326 75.8846 42.1628 75.466 42.1628 74.9079C42.1628 74.3498 42.2326 73.9312 42.3024 73.9312Z" fill="#E0E0E0"/>
<path d="M42.3024 69.9541C42.3721 69.9541 42.4419 70.3727 42.4419 70.9308C42.4419 71.489 42.3721 71.9076 42.3024 71.9076C42.2326 71.9076 42.1628 71.489 42.1628 70.9308C42.1628 70.3727 42.2326 69.9541 42.3024 69.9541Z" fill="#E0E0E0"/>
<path d="M42.3024 65.9766C42.3721 65.9766 42.4419 66.3952 42.4419 66.9533C42.4419 67.5114 42.3721 67.93 42.3024 67.93C42.2326 67.93 42.1628 67.5114 42.1628 66.9533C42.1628 66.3952 42.2326 65.9766 42.3024 65.9766Z" fill="#E0E0E0"/>
<path d="M42.3024 61.9995C42.3721 61.9995 42.4419 62.4181 42.4419 62.9763C42.4419 63.5344 42.3721 63.953 42.3024 63.953C42.2326 63.953 42.1628 63.5344 42.1628 62.9763C42.1628 62.4181 42.2326 61.9995 42.3024 61.9995Z" fill="#E0E0E0"/>
<path d="M42.3024 58.0239C42.3721 58.0239 42.4419 58.4425 42.4419 59.0007C42.4419 59.5588 42.3721 59.9774 42.3024 59.9774C42.2326 59.9774 42.1628 59.5588 42.1628 59.0007C42.1628 58.4425 42.2326 58.0239 42.3024 58.0239Z" fill="#E0E0E0"/>
<path d="M42.3024 54.0474C42.3721 54.0474 42.4419 54.466 42.4419 55.0241C42.4419 55.5822 42.3721 56.0008 42.3024 56.0008C42.2326 56.0008 42.1628 55.5822 42.1628 55.0241C42.1628 54.466 42.2326 54.0474 42.3024 54.0474Z" fill="#E0E0E0"/>
<path d="M42.3024 50.0703C42.3721 50.0703 42.4419 50.4889 42.4419 51.0471C42.4419 51.6052 42.3721 52.0238 42.3024 52.0238C42.2326 52.0238 42.1628 51.6052 42.1628 51.0471C42.1628 50.4889 42.2326 50.0703 42.3024 50.0703Z" fill="#E0E0E0"/>
<path d="M43.2783 47.0702C43.2783 47.14 42.7899 47.2097 42.2318 47.2097C42.4411 47.0004 42.3015 47.14 42.3713 47.0702V47.14V47.2097C42.3713 47.2795 42.3713 47.3493 42.3713 47.419C42.3713 47.5586 42.3713 47.6283 42.3713 47.7679C42.3713 47.9772 42.3015 48.0469 42.3015 48.0469C42.3015 48.0469 42.2318 47.9772 42.2318 47.7679C42.2318 47.6981 42.2318 47.5586 42.2318 47.419C42.2318 47.3493 42.2318 47.2795 42.2318 47.2097V47.14V47.0702C42.3015 47.0004 42.0922 47.2097 42.3713 46.9307C42.8597 46.9307 43.2783 47.0004 43.2783 47.0702Z" fill="#E0E0E0"/>
<path d="M47.3258 47.0702C47.3258 47.14 46.9072 47.2097 46.3491 47.2097C45.7909 47.2097 45.3723 47.14 45.3723 47.0702C45.3723 47.0004 45.7909 46.9307 46.3491 46.9307C46.9072 46.9307 47.3258 47.0004 47.3258 47.0702Z" fill="#E0E0E0"/>
<path d="M51.3722 47.0702C51.3722 47.14 50.9536 47.2097 50.3954 47.2097C49.8373 47.2097 49.4187 47.14 49.4187 47.0702C49.4187 47.0004 49.8373 46.9307 50.3954 46.9307C50.9536 46.9307 51.3722 47.0004 51.3722 47.0702Z" fill="#E0E0E0"/>
<path d="M55.4186 47.0702C55.4186 47.14 55 47.2097 54.4418 47.2097C53.8837 47.2097 53.4651 47.14 53.4651 47.0702C53.4651 47.0004 53.8837 46.9307 54.4418 46.9307C55 46.9307 55.4186 47.0004 55.4186 47.0702Z" fill="#E0E0E0"/>
<path d="M59.4652 47.0702C59.4652 47.14 59.0466 47.2097 58.4885 47.2097C57.9303 47.2097 57.5117 47.14 57.5117 47.0702C57.5117 47.0004 57.9303 46.9307 58.4885 46.9307C59.0466 46.9307 59.4652 47.0004 59.4652 47.0702Z" fill="#E0E0E0"/>
<path d="M63.5116 47.0702C63.5116 47.14 63.093 47.2097 62.5348 47.2097C61.9767 47.2097 61.5581 47.14 61.5581 47.0702C61.5581 47.0004 61.9767 46.9307 62.5348 46.9307C63.093 46.9307 63.5116 47.0004 63.5116 47.0702Z" fill="#E0E0E0"/>
<path d="M67.5582 47.0702C67.5582 47.14 67.1396 47.2097 66.5815 47.2097C66.0233 47.2097 65.6047 47.14 65.6047 47.0702C65.6047 47.0004 66.0233 46.9307 66.5815 46.9307C67.1396 46.9307 67.5582 47.0004 67.5582 47.0702Z" fill="#E0E0E0"/>
<path d="M71.6046 47.0702C71.6046 47.14 71.186 47.2097 70.6279 47.2097C70.0697 47.2097 69.6511 47.14 69.6511 47.0702C69.6511 47.0004 70.0697 46.9307 70.6279 46.9307C71.186 46.9307 71.6046 47.0004 71.6046 47.0702Z" fill="#E0E0E0"/>
<path d="M75.651 47.0702C75.651 47.14 75.2324 47.2097 74.6743 47.2097C74.1161 47.2097 73.6975 47.14 73.6975 47.0702C73.6975 47.0004 74.1161 46.9307 74.6743 46.9307C75.1626 46.9307 75.651 47.0004 75.651 47.0702Z" fill="#E0E0E0"/>
<path d="M79.6976 47.0702C79.6976 47.14 79.279 47.2097 78.7209 47.2097C78.1627 47.2097 77.7441 47.14 77.7441 47.0702C77.7441 47.0004 78.1627 46.9307 78.7209 46.9307C79.2093 46.9307 79.6976 47.0004 79.6976 47.0702Z" fill="#E0E0E0"/>
<path d="M83.744 47.0702C83.744 47.14 83.3254 47.2097 82.7673 47.2097C82.2091 47.2097 81.7905 47.14 81.7905 47.0702C81.7905 47.0004 82.2091 46.9307 82.7673 46.9307C83.2556 46.9307 83.744 47.0004 83.744 47.0702Z" fill="#E0E0E0"/>
<path d="M87.7906 47.0702C87.7906 47.14 87.372 47.2097 86.8139 47.2097C86.2558 47.2097 85.8372 47.14 85.8372 47.0702C85.8372 47.0004 86.2558 46.9307 86.8139 46.9307C87.3023 46.9307 87.7906 47.0004 87.7906 47.0702Z" fill="#E0E0E0"/>
<path d="M91.837 47.0702C91.837 47.14 91.4184 47.2097 90.8603 47.2097C90.3021 47.2097 89.8835 47.14 89.8835 47.0702C89.8835 47.0004 90.3021 46.9307 90.8603 46.9307C91.3487 46.9307 91.837 47.0004 91.837 47.0702Z" fill="#E0E0E0"/>
<path d="M95.8837 47.0702C95.8837 47.14 95.4651 47.2097 94.9069 47.2097C94.3488 47.2097 93.9302 47.14 93.9302 47.0702C93.9302 47.0004 94.3488 46.9307 94.9069 46.9307C95.3953 46.9307 95.8837 47.0004 95.8837 47.0702Z" fill="#E0E0E0"/>
<path d="M99.9303 47.0702C99.9303 47.14 99.5117 47.2097 98.9535 47.2097C98.3954 47.2097 97.9768 47.14 97.9768 47.0702C97.9768 47.0004 98.3954 46.9307 98.9535 46.9307C99.4419 46.9307 99.9303 47.0004 99.9303 47.0702Z" fill="#E0E0E0"/>
<path d="M103.977 47.0702C103.977 47.14 103.558 47.2097 103 47.2097C102.442 47.2097 102.023 47.14 102.023 47.0702C102.023 47.0004 102.442 46.9307 103 46.9307C103.488 46.9307 103.977 47.0004 103.977 47.0702Z" fill="#E0E0E0"/>
<path d="M106.977 48.0464C106.907 48.0464 106.837 47.558 106.837 46.9998C107.047 47.2091 106.907 47.0696 106.977 47.1394H106.907H106.837C106.767 47.1394 106.698 47.1394 106.628 47.1394C106.488 47.1394 106.419 47.1394 106.279 47.1394C106.07 47.1394 106 47.0696 106 47.0696C106 47.0696 106.14 46.9998 106.279 46.9998C106.349 46.9998 106.488 46.9998 106.628 46.9998C106.698 46.9998 106.767 46.9998 106.837 46.9998H106.907H106.977C107.047 47.0696 106.837 46.8603 107.116 47.1394C107.116 47.6277 107.047 48.0464 106.977 48.0464Z" fill="#E0E0E0"/>
<path d="M106.976 52.0238C106.907 52.0238 106.837 51.6052 106.837 51.0471C106.837 50.4889 106.907 50.0703 106.976 50.0703C107.046 50.0703 107.116 50.4889 107.116 51.0471C107.116 51.6052 107.046 52.0238 106.976 52.0238Z" fill="#E0E0E0"/>
<path d="M106.976 56.0008C106.907 56.0008 106.837 55.5822 106.837 55.0241C106.837 54.466 106.907 54.0474 106.976 54.0474C107.046 54.0474 107.116 54.466 107.116 55.0241C107.116 55.5822 107.046 56.0008 106.976 56.0008Z" fill="#E0E0E0"/>
<path d="M106.976 59.9774C106.907 59.9774 106.837 59.5588 106.837 59.0007C106.837 58.4425 106.907 58.0239 106.976 58.0239C107.046 58.0239 107.116 58.4425 107.116 59.0007C107.116 59.5588 107.046 59.9774 106.976 59.9774Z" fill="#E0E0E0"/>
<path d="M106.976 63.953C106.907 63.953 106.837 63.5344 106.837 62.9763C106.837 62.4181 106.907 61.9995 106.976 61.9995C107.046 61.9995 107.116 62.4181 107.116 62.9763C107.116 63.5344 107.046 63.953 106.976 63.953Z" fill="#E0E0E0"/>
<path d="M106.976 67.93C106.907 67.93 106.837 67.5114 106.837 66.9533C106.837 66.3952 106.907 65.9766 106.976 65.9766C107.046 65.9766 107.116 66.3952 107.116 66.9533C107.116 67.5114 107.046 67.93 106.976 67.93Z" fill="#E0E0E0"/>
<path d="M106.976 71.9076C106.907 71.9076 106.837 71.489 106.837 70.9308C106.837 70.3727 106.907 69.9541 106.976 69.9541C107.046 69.9541 107.116 70.3727 107.116 70.9308C107.116 71.489 107.046 71.9076 106.976 71.9076Z" fill="#E0E0E0"/>
<path d="M106.976 75.8846C106.907 75.8846 106.837 75.466 106.837 74.9079C106.837 74.3498 106.907 73.9312 106.976 73.9312C107.046 73.9312 107.116 74.3498 107.116 74.9079C107.116 75.466 107.046 75.8846 106.976 75.8846Z" fill="#E0E0E0"/>
<path d="M106.976 79.8612C106.907 79.8612 106.837 79.4426 106.837 78.8845C106.837 78.3263 106.907 77.9077 106.976 77.9077C107.046 77.9077 107.116 78.3263 107.116 78.8845C107.116 79.4426 107.046 79.8612 106.976 79.8612Z" fill="#E0E0E0"/>
<path d="M106.976 83.9081C106.907 83.9081 106.837 83.4895 106.837 82.9313C106.837 82.3732 106.907 81.9546 106.976 81.9546C107.046 81.9546 107.116 82.3732 107.116 82.9313C107.116 83.4197 107.046 83.9081 106.976 83.9081Z" fill="#E0E0E0"/>
<path d="M99.93 102.116H79.0696V103.023H99.93V102.116Z" fill="#E0E0E0"/>
<path d="M99.93 103.651H79.0696V104.558H99.93V103.651Z" fill="#E0E0E0"/>
<path d="M97.3486 105.187H79.0696V106.093H97.3486V105.187Z" fill="#E0E0E0"/>
<path d="M89.9533 106.721H79.0696V107.628H89.9533V106.721Z" fill="#E0E0E0"/>
<path d="M99.93 110.07H79.0696V110.977H99.93V110.07Z" fill="#E0E0E0"/>
<path d="M99.93 111.604H79.0696V112.511H99.93V111.604Z" fill="#E0E0E0"/>
<path d="M97.3486 113.139H79.0696V114.046H97.3486V113.139Z" fill="#E0E0E0"/>
<path d="M89.9533 114.674H79.0696V115.581H89.9533V114.674Z" fill="#E0E0E0"/>
<path d="M88.488 42.9095V89.0905C88.488 90.1513 87.6393 91 86.5785 91H24.9095C23.8487 91 23 90.1513 23 89.0905V42.9095C23 41.8487 23.8487 41 24.9095 41H86.5078C87.5686 41 88.488 41.8487 88.488 42.9095Z" fill="#9DCC3D"/>
<path d="M88.488 72.33V89.091C88.488 90.1518 87.6393 91.0004 86.5785 91.0004H24.9095C23.8487 91.0004 23 90.1518 23 89.091V72.9665C23 72.9665 33.5375 54.8618 40.9632 54.8618C50.2277 54.8618 55.5318 76.0075 60.1287 76.0075C64.7256 76.0075 70.7369 61.4389 76.8897 61.4389C80.5672 61.4389 85.3055 67.5209 88.488 72.33Z" fill="#0C60DF"/>
<path d="M80.0723 51.3253C80.0723 53.6591 78.1628 55.5686 75.829 55.5686C73.4952 55.5686 71.5857 53.6591 71.5857 51.3253C71.5857 48.9915 73.4952 47.082 75.829 47.082C78.1628 47.082 80.0723 48.9915 80.0723 51.3253Z" fill="#FBF8FF"/>
<path d="M155.49 149.845H124.056C123.497 149.845 123 149.41 123 148.789V106.11C123 105.551 123.435 105.054 124.056 105.054H155.49C156.049 105.054 156.546 105.489 156.546 106.11V148.789C156.484 149.348 156.049 149.845 155.49 149.845Z" fill="#0C60DF"/>
<path d="M150.707 109.962H128.839V112.944H150.707V109.962Z" fill="#FBF8FF"/>
<path d="M144.308 145.061H135.176C134.244 145.061 133.499 144.315 133.499 143.383C133.499 142.452 134.244 141.706 135.176 141.706H144.308C145.24 141.706 145.985 142.452 145.985 143.383C145.985 144.315 145.24 145.061 144.308 145.061Z" fill="#9DCC3D"/>
<path d="M140.829 118.597H130.952C130.89 118.597 130.827 118.535 130.827 118.472V117.354C130.827 117.292 130.89 117.23 130.952 117.23H140.829C140.891 117.23 140.953 117.292 140.953 117.354V118.472C141.016 118.535 140.953 118.597 140.829 118.597Z" fill="#FBF8FF"/>
<path d="M152.322 122.014H130.952C130.89 122.014 130.827 121.952 130.827 121.889V120.771C130.827 120.709 130.89 120.647 130.952 120.647H152.322C152.384 120.647 152.446 120.709 152.446 120.771V121.889C152.508 121.952 152.446 122.014 152.322 122.014Z" fill="#FBF8FF"/>
<path d="M152.322 125.431H130.952C130.89 125.431 130.827 125.369 130.827 125.306V124.188C130.827 124.126 130.89 124.064 130.952 124.064H152.322C152.384 124.064 152.446 124.126 152.446 124.188V125.306C152.508 125.369 152.446 125.431 152.322 125.431Z" fill="#FBF8FF"/>
<path d="M127.286 117.851C127.286 118.224 126.976 118.535 126.603 118.535C126.23 118.535 125.92 118.224 125.92 117.851C125.92 117.479 126.23 117.168 126.603 117.168C126.976 117.168 127.286 117.479 127.286 117.851Z" fill="#FBF8FF"/>
<path d="M140.829 129.965H130.952C130.89 129.965 130.827 129.903 130.827 129.841V128.722C130.827 128.66 130.89 128.598 130.952 128.598H140.829C140.891 128.598 140.953 128.66 140.953 128.722V129.841C141.016 129.903 140.953 129.965 140.829 129.965Z" fill="#FBF8FF"/>
<path d="M152.322 133.443H130.952C130.89 133.443 130.827 133.381 130.827 133.319V132.201C130.827 132.139 130.89 132.077 130.952 132.077H152.322C152.384 132.077 152.446 132.139 152.446 132.201V133.319C152.508 133.381 152.446 133.443 152.322 133.443Z" fill="#FBF8FF"/>
<path d="M152.322 136.86H130.952C130.89 136.86 130.827 136.798 130.827 136.736V135.618C130.827 135.556 130.89 135.494 130.952 135.494H152.322C152.384 135.494 152.446 135.556 152.446 135.618V136.736C152.508 136.798 152.446 136.86 152.322 136.86Z" fill="#FBF8FF"/>
<path d="M127.286 129.282C127.286 129.655 126.976 129.965 126.603 129.965C126.23 129.965 125.92 129.655 125.92 129.282C125.92 128.909 126.23 128.599 126.603 128.599C126.976 128.599 127.286 128.909 127.286 129.282Z" fill="#FBF8FF"/>
<path d="M171.207 104.123L155.179 117.355C155.055 117.479 154.931 117.541 154.806 117.666C154.496 117.914 154.123 118.038 153.688 118.163L151.079 118.908C150.768 118.97 150.52 118.659 150.644 118.411L151.887 115.988C152.073 115.615 152.322 115.305 152.57 114.994C152.694 114.87 152.819 114.746 152.943 114.621L168.908 101.451C169.654 100.83 170.772 100.83 171.393 101.576C172.077 102.321 172.014 103.502 171.207 104.123Z" fill="#9DCC3D"/>
<path d="M154.807 117.603C154.496 117.851 154.123 117.976 153.688 118.1L152.197 118.535L151.141 118.845C150.831 118.908 150.582 118.597 150.707 118.348L151.203 117.354L151.887 115.926C152.073 115.553 152.322 115.242 152.57 114.932C153.129 115.118 154.496 115.739 154.807 117.603Z" fill="#FCFDFF"/>
<path d="M152.197 118.535L151.141 118.845C150.831 118.908 150.582 118.597 150.707 118.348L151.203 117.354C151.638 117.354 152.322 117.603 152.197 118.535Z" fill="#9DCC3D"/>
<path d="M155.353 2.29337V26.756C155.353 28.0119 154.315 29.0494 153.06 29.0494H117.294C116.038 29.0494 115 28.0119 115 26.756V2.29337C115 1.03748 116.038 0 117.294 0H153.06C154.315 0 155.353 1.03748 155.353 2.29337Z" fill="#0C60DF"/>
<path d="M155.352 23.4795V26.7557C155.352 28.0116 154.315 29.0491 153.059 29.0491H117.293C116.037 29.0491 115 28.0116 115 26.7557V23.4795H155.352Z" fill="#0C60DF"/>
<path d="M136.405 26.5365C136.405 26.8095 136.514 27.0826 136.623 27.2464H118.549C118.167 27.2464 117.839 26.9187 117.839 26.5365C117.839 26.1543 118.167 25.8267 118.549 25.8267H136.623C136.514 26.0451 136.405 26.2635 136.405 26.5365Z" fill="#0C60DF"/>
<path d="M142.684 26.5365C142.684 26.9187 142.357 27.2464 141.974 27.2464H136.678C136.514 27.028 136.459 26.8095 136.459 26.5365C136.459 26.2635 136.569 25.9905 136.678 25.8267H141.974C142.302 25.8267 142.684 26.1543 142.684 26.5365Z" fill="#8F83FF"/>
<path d="M139.026 26.5367C139.026 26.8097 138.916 27.0827 138.807 27.2465C138.589 27.5741 138.206 27.7926 137.715 27.7926C137.278 27.7926 136.896 27.5741 136.623 27.2465C136.459 27.0281 136.405 26.8097 136.405 26.5367C136.405 26.2636 136.514 25.9906 136.623 25.8268C136.841 25.4992 137.224 25.2808 137.715 25.2808C138.152 25.2808 138.534 25.4992 138.807 25.8268C138.916 26.0452 139.026 26.2636 139.026 26.5367Z" fill="white"/>
<path d="M138.371 26.5366C138.371 26.8642 138.098 27.1918 137.715 27.1918C137.388 27.1918 137.06 26.9188 137.06 26.5366C137.06 26.1544 137.333 25.8813 137.715 25.8813C138.043 25.936 138.371 26.209 138.371 26.5366Z" fill="#0C60DF"/>
<path d="M148.09 27.1927V25.9914C148.09 25.8276 148.254 25.7184 148.418 25.773L149.619 26.3736C149.783 26.4282 149.783 26.7013 149.619 26.7559L148.418 27.3565C148.254 27.4657 148.09 27.3565 148.09 27.1927Z" fill="#8F83FF"/>
<path d="M151.367 26.9752V26.2107C151.367 26.1015 151.421 26.0469 151.531 26.1015L152.131 26.4837C152.186 26.5383 152.186 26.6475 152.131 26.7021L151.531 27.0844C151.476 27.139 151.367 27.0298 151.367 26.9752Z" fill="#8F83FF"/>
<path d="M152.186 26.9742V26.2097C152.186 26.1005 152.24 26.0459 152.35 26.1005L152.95 26.4828C153.005 26.5374 153.005 26.6466 152.95 26.7012L152.35 27.0834C152.24 27.138 152.186 27.0288 152.186 26.9742Z" fill="#8F83FF"/>
<path d="M146.616 26.9742V26.2097C146.616 26.1005 146.562 26.0459 146.452 26.1005L145.852 26.4828C145.797 26.5374 145.797 26.6466 145.852 26.7012L146.452 27.0834C146.507 27.138 146.616 27.0288 146.616 26.9742Z" fill="#8F83FF"/>
<path d="M145.797 26.9752V26.2107C145.797 26.1015 145.742 26.0469 145.633 26.1015L145.032 26.4837C144.978 26.5383 144.978 26.6475 145.032 26.7021L145.633 27.0844C145.742 27.139 145.797 27.0298 145.797 26.9752Z" fill="#8F83FF"/>
<path d="M142.186 13.788C143.105 9.9148 140.711 6.02947 136.838 5.10993C132.964 4.19038 129.079 6.58482 128.16 10.4581C127.24 14.3313 129.635 18.2166 133.508 19.1362C137.381 20.0557 141.266 17.6613 142.186 13.788Z" fill="#FBF8FF"/>
<path d="M133.238 14.3062V9.88331C133.238 9.39187 133.784 9.11885 134.166 9.39187L137.551 11.6306C137.933 11.8491 137.933 12.3951 137.551 12.6681L134.166 14.9069C133.784 15.1253 133.238 14.7977 133.238 14.3062Z" fill="#0C60DF"/>
<path d="M53.0249 116.606H51.8719C51.6714 116.606 51.4708 116.406 51.521 116.155L52.7743 110.54C52.8244 110.39 52.9748 110.29 53.1252 110.29H55.0804C55.2809 110.29 55.4814 110.49 55.4313 110.741L54.3284 115.604C54.178 116.155 53.6265 116.606 53.0249 116.606Z" fill="#0C60DF"/>
<path d="M63.202 108.686H62.0991V104.875H63.202C64.2548 104.875 65.1071 105.728 65.1071 106.781C65.1572 107.833 64.2548 108.686 63.202 108.686Z" fill="#9DCC3D"/>
<path d="M48.3126 110.942H52.7243V102.67H48.3126C47.8614 102.67 47.5105 103.021 47.5105 103.472V110.14C47.5105 110.591 47.8614 110.942 48.3126 110.942Z" fill="#9DCC3D"/>
<path d="M52.7241 102.67L62.8007 101.015C63.3021 100.915 63.7533 101.316 63.7533 101.818V111.694C63.7533 112.195 63.3021 112.596 62.8007 112.496L52.7241 110.942V102.67Z" fill="#0C60DF"/>
<path d="M51.3706 104.625H49.3653C49.2651 104.625 49.1648 104.525 49.1648 104.425C49.1648 104.324 49.2651 104.224 49.3653 104.224H51.3706C51.4709 104.224 51.5712 104.324 51.5712 104.425C51.5712 104.525 51.4709 104.625 51.3706 104.625Z" fill="#0C60DF"/>
<path d="M51.3706 105.477H49.3653C49.2651 105.477 49.1648 105.377 49.1648 105.277C49.1648 105.176 49.2651 105.076 49.3653 105.076H51.3706C51.4709 105.076 51.5712 105.176 51.5712 105.277C51.5712 105.377 51.4709 105.477 51.3706 105.477Z" fill="#0C60DF"/>
<defs>
<filter id="filter0_bd" x="6" y="2" width="204" height="162" filterUnits="userSpaceOnUse" color-interpolation-filters="sRGB">
<feFlood flood-opacity="0" result="BackgroundImageFix"/>
<feGaussianBlur in="BackgroundImage" stdDeviation="5"/>
<feComposite in2="SourceAlpha" operator="in" result="effect1_backgroundBlur"/>
<feColorMatrix in="SourceAlpha" type="matrix" values="0 0 0 0 0 0 0 0 0 0 0 0 0 0 0 0 0 0 127 0"/>
<feOffset dy="7"/>
<feGaussianBlur stdDeviation="5.5"/>
<feColorMatrix type="matrix" values="0 0 0 0 0.691319 0 0 0 0 0.780272 0 0 0 0 0.916667 0 0 0 0.3 0"/>
<feBlend mode="normal" in2="effect1_backgroundBlur" result="effect2_dropShadow"/>
<feBlend mode="normal" in="SourceGraphic" in2="effect2_dropShadow" result="shape"/>
</filter>
<linearGradient id="paint0_linear" x1="108" y1="12" x2="108" y2="146" gradientUnits="userSpaceOnUse">
<stop stop-color="white"/>
<stop offset="0.0001" stop-color="white"/>
<stop offset="1" stop-color="white" stop-opacity="0.35"/>
</linearGradient>
</defs>
</svg>
